<?xml version="1.0" standalone="no"?>
<!DOCTYPE svg PUBLIC "-//W3C//DTD SVG 20010904//EN"
 "http://www.w3.org/TR/2001/REC-SVG-20010904/DTD/svg10.dtd">
<svg version="1.0" xmlns="http://www.w3.org/2000/svg"
 width="256.000000pt" height="256.000000pt" viewBox="0 0 256.000000 256.000000"
 preserveAspectRatio="xMidYMid meet">

<g transform="translate(0.000000,256.000000) scale(0.100000,-0.100000)"
fill="#000000" stroke="none">
<path d="M820 2149 c-133 -14 -310 -54 -372 -83 -67 -32 -129 -97 -155 -164
-16 -43 -18 -91 -20 -522 -1 -261 2 -508 7 -548 37 -278 271 -402 762 -402
180 0 323 15 447 46 173 43 256 112 317 262 l22 54 57 5 c292 21 497 323 420
618 -53 200 -240 355 -431 355 l-41 0 -6 56 c-12 118 -86 213 -196 255 -173
66 -538 96 -811 68z m565 -65 c127 -17 171 -28 238 -56 38 -17 47 -25 45 -42
-4 -26 -96 -59 -234 -83 -142 -24 -607 -24 -749 1 -186 32 -274 67 -247 99 29
34 230 82 415 97 131 11 391 3 532 -16z m-972 -158 c68 -51 207 -79 482 -96
337 -22 724 27 803 100 12 11 24 20 27 20 3 0 16 -21 28 -47 22 -47 22 -58 25
-533 3 -507 -1 -574 -39 -655 -62 -131 -213 -200 -496 -224 -164 -15 -264 -14
-413 4 -291 34 -427 110 -478 265 -20 62 -21 87 -24 585 l-3 520 23 43 c12 23
25 42 28 42 3 0 20 -11 37 -24z m1568 -230 c79 -28 146 -72 187 -123 159 -203
122 -507 -79 -646 -65 -44 -153 -77 -209 -77 -44 0 -42 -6 -42 105 -1 118 0
125 24 125 37 0 106 40 142 81 66 78 66 170 -1 249 -39 46 -72 65 -126 75
l-37 7 0 114 0 114 38 0 c20 0 67 -11 103 -24z m-54 -284 c65 -35 91 -150 47
-208 -30 -41 -65 -64 -107 -71 l-37 -6 0 150 c0 82 2 152 6 155 7 7 63 -5 91
-20z"/>
<path d="M644 1696 c-29 -29 -34 -41 -34 -80 0 -83 38 -126 110 -126 47 0 78
20 100 66 28 56 15 112 -34 149 -49 37 -99 34 -142 -9z m74 -18 c28 -28 3 -84
-34 -76 -28 5 -40 33 -26 62 12 28 40 34 60 14z m50 -115 c-4 -22 -22 -20 -26
1 -2 10 3 16 13 16 10 0 15 -7 13 -17z"/>
<path d="M1310 1702 c-52 -53 -52 -132 1 -185 27 -27 34 -29 81 -25 60 6 93
36 104 93 20 109 -111 191 -186 117z m74 -28 c19 -18 20 -28 6 -55 -14 -26
-56 -25 -70 2 -9 16 -8 26 5 45 18 28 37 31 59 8z m49 -109 c1 -5 -6 -11 -15
-13 -11 -2 -18 3 -18 13 0 17 30 18 33 0z"/>
<path d="M933 1604 c-10 -27 10 -67 47 -92 29 -19 44 -23 84 -19 42 4 55 11
84 41 37 41 40 79 7 84 -14 1 -24 -7 -35 -30 -28 -60 -108 -57 -138 5 -15 30
-39 36 -49 11z"/>
<path d="M943 1379 c-193 -61 -304 -276 -247 -479 18 -65 98 -178 147 -209 70
-43 157 -64 242 -58 106 7 162 32 239 110 83 82 110 148 109 267 0 98 -16 150
-70 228 -92 135 -260 192 -420 141z m219 -49 c84 -24 177 -123 204 -217 46
-158 -27 -326 -171 -395 -160 -76 -357 -3 -434 161 -35 75 -37 201 -4 272 41
92 129 163 230 189 42 10 118 6 175 -10z"/>
<path d="M988 1240 c-108 -32 -181 -149 -164 -261 9 -61 55 -131 107 -166 114
-75 291 -17 345 113 20 47 17 141 -5 190 -22 49 -92 111 -140 124 -42 12 -105
12 -143 0z m152 -67 c93 -48 125 -149 78 -243 -66 -131 -256 -130 -324 1 -20
39 -20 128 -1 166 21 40 59 73 104 88 56 21 83 18 143 -12z"/>
</g>
</svg>
